<svg xmlns="http://www.w3.org/2000/svg" viewBox="0 0 120 92" role="img" aria-labelledby="title desc">
  <title id="title">Tiny cozy cat</title>
  <desc id="desc">A small sitting cat with a curled tail.</desc>
  <defs>
    <linearGradient id="fur" x1="24" y1="18" x2="92" y2="88" gradientUnits="userSpaceOnUse">
      <stop stop-color="#F8FAFC"/>
      <stop offset="1" stop-color="#CBD5E1"/>
    </linearGradient>
    <linearGradient id="tail" x1="82" y1="46" x2="113" y2="76" gradientUnits="userSpaceOnUse">
      <stop stop-color="#CBD5E1"/>
      <stop offset="1" stop-color="#94A3B8"/>
    </linearGradient>
    <filter id="soft-shadow" x="-20%" y="-20%" width="140%" height="150%">
      <feDropShadow dx="0" dy="4" stdDeviation="4" flood-color="#0F172A" flood-opacity=".12"/>
    </filter>
  </defs>
  <ellipse cx="58" cy="84" rx="42" ry="6" fill="#DBEAFE"/>
  <g filter="url(#soft-shadow)">
    <path d="M87 64c14-11 27-3 22 8-4 8-18 8-24 1" fill="none" stroke="url(#tail)" stroke-width="10" stroke-linecap="round"/>
    <path d="M29 45c0-16 13-29 29-29s29 13 29 29v18c0 16-13 24-29 24S29 79 29 63V45Z" fill="url(#fur)" stroke="#64748B" stroke-width="3"/>
    <path d="M35 25 28 8l18 8" fill="#E2E8F0" stroke="#64748B" stroke-width="3" stroke-linejoin="round"/>
    <path d="m81 25 7-17-18 8" fill="#E2E8F0" stroke="#64748B" stroke-width="3" stroke-linejoin="round"/>
    <path d="M43 50h.1M73 50h.1" stroke="#0F172A" stroke-width="7" stroke-linecap="round"/>
    <path d="M58 56v4" stroke="#0F172A" stroke-width="3" stroke-linecap="round"/>
    <path d="M51 64c3 4 11 4 14 0" fill="none" stroke="#0F172A" stroke-width="3" stroke-linecap="round"/>
    <path d="M28 58H11M30 65H13M88 58h19M86 65h18" stroke="#64748B" stroke-width="3" stroke-linecap="round"/>
    <circle cx="47" cy="57" r="4" fill="#FBCFE8" opacity=".8"/>
    <circle cx="69" cy="57" r="4" fill="#FBCFE8" opacity=".8"/>
    <path d="M44 80c-1-7 3-12 9-13M72 80c1-7-3-12-9-13" fill="none" stroke="#64748B" stroke-width="3" stroke-linecap="round"/>
  </g>
</svg>
